<svg id="Layer_1" data-name="Layer 1" xmlns="http://www.w3.org/2000/svg" viewBox="0 0 144 125.94" class="explorers-icon">
  <title>sdg-explorers-club-logo-icon</title>
      <path d="M72.65,9.61l1.54,27.13a2.19,2.19,0,1,1-4.38.25,1,1,0,0,1,0-.25L71.36,9.61A.64.64,0,0,1,72,9,.66.66,0,0,1,72.65,9.61Z" fill="#ea1c2d"/>
      <path d="M52.86,13.13,64.29,37.78a2.2,2.2,0,1,1-4,1.85,2.34,2.34,0,0,1-.09-.24L51.66,13.6a.65.65,0,0,1,1.2-.47Z" fill="#1a3668"/>
      <path d="M36.3,23.21l19.44,19a2.2,2.2,0,0,1-3.06,3.15l-.17-.19L35.35,24.08a.64.64,0,0,1,.09-.91A.65.65,0,0,1,36.3,23.21Z" fill="#00558a"/>
      <path d="M24.43,38.45l24.9,10.88a2.2,2.2,0,0,1-1.76,4l-.23-.12L23.84,39.6a.65.65,0,0,1,.59-1.15Z" fill="#40ae49"/>
      <path d="M18.67,57.45l27.15,1a2.2,2.2,0,1,1-.16,4.39l-.25,0L18.55,58.74a.65.65,0,0,1,.12-1.29Z" fill="#007dbb"/>
      <path d="M20.33,77.68l25.61-9.09a2.2,2.2,0,0,1,1.47,4.14l-.24.07L20.69,78.91a.64.64,0,0,1-.36-1.23Z" fill="#48773c"/>
      <path d="M28.91,95.19,49.56,77.53a2.2,2.2,0,0,1,2.86,3.34l-.2.15L29.69,96.22a.65.65,0,0,1-.78-1Z" fill="#cd8b2a"/>
      <path d="M43,108.36l13.11-23.8a2.2,2.2,0,1,1,3.85,2.12l-.14.21L44.08,109.05a.64.64,0,0,1-.9.15A.66.66,0,0,1,43,108.36Z" fill="#f99d25"/>
      <path d="M61.19,115.79l3.6-26.93a2.2,2.2,0,1,1,4.31.83L62.46,116a.65.65,0,0,1-1.27-.25Z" fill="#e01a83"/>
      <path d="M81.54,116,74.9,89.69a2.2,2.2,0,1,1,4.26-1.08c0,.08,0,.17,0,.25l3.6,26.93a.65.65,0,0,1-.55.73A.66.66,0,0,1,81.54,116Z" fill="#f36e24"/>
      <path d="M99.92,109.05,84.2,86.89a2.19,2.19,0,1,1,3.58-2.54,2.39,2.39,0,0,1,.13.21L101,108.36a.65.65,0,0,1-1.1.69Z" fill="#8f1838"/>
      <path d="M114.31,96.22,91.78,81a2.2,2.2,0,0,1,2.46-3.64l.2.15,20.65,17.66a.65.65,0,0,1,.07.91A.64.64,0,0,1,114.31,96.22Z" fill="#fdb714"/>
      <path d="M123.31,78.91,96.83,72.8a2.2,2.2,0,0,1,1-4.28l.24.07,25.61,9.09a.64.64,0,0,1-.36,1.23Z" fill="#00add8"/>
      <path d="M125.45,58.74,98.59,62.86a2.19,2.19,0,0,1-.66-4.34,1.9,1.9,0,0,1,.25,0l27.15-1a.65.65,0,0,1,.12,1.29Z" fill="#ef412a"/>
      <path d="M120.16,39.6,96.66,53.24a2.2,2.2,0,1,1-2.21-3.8l.22-.11,24.9-10.88a.65.65,0,0,1,.59,1.15Z" fill="#c22033"/>
      <path d="M108.65,24.08,91.49,45.15a2.19,2.19,0,1,1-3.4-2.77,1.54,1.54,0,0,1,.17-.19l19.44-19a.66.66,0,0,1,.92,0A.64.64,0,0,1,108.65,24.08Z" fill="#2d9a47"/>
      <path d="M92.34,13.6,83.79,39.39A2.2,2.2,0,1,1,79.62,38l.09-.23L91.14,13.13a.65.65,0,0,1,1.2.47Z" fill="#d19f2a"/>
    <path d="M70.13,52.34,61.61,70.51c-1,2.16.73,4.69,2.63,3.83l7-3.19a1.79,1.79,0,0,1,1.5,0l7,3.19c1.9.86,3.64-1.67,2.63-3.83L73.87,52.34A2,2,0,0,0,70.13,52.34Z" fill="#1a3668" class="icon-arrow"/>
</svg>
